<?xml version="1.0" encoding="UTF-8" standalone="no"?>
<!-- Created with Inkscape (http://www.inkscape.org/) -->

<svg
   width="119.16095mm"
   height="69.999969mm"
   viewBox="0 0 119.16095 69.999969"
   version="1.1"
   id="svg5"
   inkscape:version="1.1.2 (0a00cf5339, 2022-02-04)"
   sodipodi:docname="brand_white02.3.svg"
   xmlns:inkscape="http://www.inkscape.org/namespaces/inkscape"
   xmlns:sodipodi="http://sodipodi.sourceforge.net/DTD/sodipodi-0.dtd"
   xmlns="http://www.w3.org/2000/svg"
   xmlns:svg="http://www.w3.org/2000/svg">
  <sodipodi:namedview
     id="namedview7"
     pagecolor="#ffffff"
     bordercolor="#666666"
     borderopacity="1.0"
     inkscape:pageshadow="2"
     inkscape:pageopacity="0.0"
     inkscape:pagecheckerboard="0"
     inkscape:document-units="mm"
     showgrid="false"
     inkscape:zoom="0.38796647"
     inkscape:cx="219.0911"
     inkscape:cy="-59.283474"
     inkscape:window-width="639"
     inkscape:window-height="1061"
     inkscape:window-x="1280"
     inkscape:window-y="0"
     inkscape:window-maximized="1"
     inkscape:current-layer="text1234"
     fit-margin-top="0"
     fit-margin-left="0"
     fit-margin-right="0"
     fit-margin-bottom="0" />
  <defs
     id="defs2" />
  <g
     inkscape:label="Layer 1"
     inkscape:groupmode="layer"
     id="layer1"
     transform="translate(-45.419524,-113.50001)">
    <g
       aria-label="{o}"
       transform="scale(1.037738,0.96363436)"
       id="text1234"
       style="font-size:73.4667px;line-height:1.25;font-family:Chilanka;-inkscape-font-specification:'Chilanka, Normal';stroke-width:1.83666">
      <path
         d="m 60.23325,122.80541 c 1.757748,0 3.300262,0.68157 4.1612,1.54251 0.609831,0.60983 1.327279,0.96856 2.008855,0.96856 1.18379,0 2.224089,-1.14792 2.224089,-2.36758 0,-0.57396 -0.215234,-1.18379 -0.645703,-1.61426 -1.721876,-1.75775 -4.376434,-3.19265 -7.497334,-3.19265 -1.004427,0 -2.044727,0.14349 -3.1209,0.46635 -4.627541,1.32727 -8.286527,5.66784 -8.286527,11.44329 0,2.51107 0.860938,4.62755 2.008855,7.21036 1.004428,2.22409 1.614259,3.83835 1.793621,4.8069 0.107617,0.57396 0.179362,1.14792 0.179362,1.65013 0,2.90567 -1.578386,4.9504 -3.623113,6.02657 -2.0806,0 -5.667841,0.6457 -5.667841,2.90566 0,1.90124 1.327279,2.51107 2.97741,2.51107 1.112044,0 2.403451,-0.28698 3.479624,-0.68157 2.188217,0.35872 3.73073,1.686 4.627541,3.98183 0.573958,1.50665 0.789193,2.72631 0.789193,4.26882 0,3.47962 -0.717449,7.46146 -0.717449,10.403 0,7.74844 2.618686,13.05756 7.820186,15.92735 1.686003,0.93268 3.587241,1.36315 5.488479,1.36315 2.367579,0 4.699286,-0.68157 6.600524,-1.90124 0.609831,-0.39459 1.076172,-1.18379 1.076172,-2.00885 0,-1.29141 -1.076172,-2.25996 -2.188217,-2.25996 -0.538086,0 -1.18379,0.21523 -1.829493,0.60983 -0.932683,0.57396 -2.152345,0.86094 -3.372007,0.86094 -1.327279,0 -2.690431,-0.32286 -3.766603,-0.89681 -2.941538,-1.61426 -5.2015,-5.73959 -5.2015,-11.08458 0,-3.19264 0.717449,-7.13861 0.717449,-10.58236 0,-5.52435 -1.757748,-9.47032 -5.416734,-11.8379 2.008855,-2.3317 2.83392,-4.77103 2.83392,-7.35384 0,-2.61869 -0.860938,-5.30912 -2.0806,-8.07129 -1.0403,-2.29584 -1.829493,-4.37644 -1.829493,-6.34942 0,-3.15677 2.97741,-6.74401 6.457034,-6.74401 z"
         id="path845"
         style="fill:#ffffff" />
      <path
         d="m 101.48652,132.13223 c -0.28698,-0.10761 -0.57396,-0.14349 -0.86094,-0.10761 -4.23294,0.17936 -7.999543,1.79362 -11.335677,4.84277 -3.336134,3.04916 -5.309117,6.92338 -5.990693,11.69441 -0.143489,1.00443 -0.215234,1.97298 -0.215234,2.90566 0,3.65899 1.0403,7.031 3.049155,10.1519 3.013282,4.59166 7.89193,8.07129 14.958799,8.07129 3.80247,0 7.42559,-1.14792 10.25951,-2.97741 4.4123,-2.83392 7.96367,-8.25066 7.96367,-14.81531 0,-4.4123 -1.14792,-7.99954 -3.19264,-10.94108 -3.80248,-5.52435 -8.68113,-8.46589 -14.63595,-8.82462 z m 13.1293,19.5146 c 0,2.61868 -0.68157,5.27324 -2.08059,7.46146 -2.0806,3.30026 -6.42117,5.95482 -11.33569,5.95482 -1.686,0 -3.407876,-0.28698 -5.165624,-1.00443 -4.197072,-1.686 -8.322399,-6.38529 -8.322399,-12.51947 0,-8.03542 5.596096,-14.42071 12.949943,-14.85118 0.17936,0.0718 0.39459,0.10762 0.57396,0.10762 6.74401,0.43047 13.3804,6.52878 13.3804,14.85118 z"
         id="path847"
         style="fill:#ffffff" />
      <path
         d="m 142.12996,185.40276 c -1.75775,0 -3.30026,-0.68157 -4.1612,-1.54251 -0.60983,-0.60983 -1.32728,-0.96855 -2.00885,-0.96855 -1.18379,0 -2.22409,1.14791 -2.22409,2.36757 0,0.57396 0.21523,1.18379 0.6457,1.61426 1.72188,1.75775 4.37644,3.19265 7.49734,3.19265 1.00442,0 2.04472,-0.14349 3.1209,-0.46634 4.62754,-1.32728 8.28652,-5.66784 8.28652,-11.4433 0,-2.51107 -0.86094,-4.62754 -2.00885,-7.21036 -1.00443,-2.22409 -1.57839,-3.87422 -1.75775,-4.84277 -0.10762,-0.57396 -0.17936,-1.14792 -0.17936,-1.68601 0,-2.86979 1.54251,-4.87864 3.58724,-5.95482 2.0806,0 5.66784,-0.6457 5.66784,-2.90566 0,-1.90124 -1.32728,-2.51107 -2.97741,-2.51107 -1.11205,0 -2.40345,0.28698 -3.47962,0.68158 -2.18822,-0.35873 -3.73074,-1.68601 -4.62755,-3.98184 -0.57395,-1.50664 -0.78919,-2.72631 -0.78919,-4.26882 0,-3.47962 0.71745,-7.46146 0.71745,-10.403 0,-7.74844 -2.61869,-13.05756 -7.82019,-15.92735 -1.686,-0.93268 -3.58724,-1.36315 -5.48847,-1.36315 -2.36758,0 -4.69929,0.68158 -6.60053,1.90124 -0.60983,0.39459 -1.07617,1.18379 -1.07617,2.00885 0,1.29141 1.07617,2.25996 2.15234,2.25996 0.60983,0 1.25554,-0.21523 1.90124,-0.6457 0.93268,-0.57396 2.11647,-0.86094 3.37201,-0.86094 1.32728,0 2.65456,0.32285 3.73073,0.89681 2.94154,1.61426 5.2015,5.81133 5.2015,11.12045 0,3.19265 -0.71745,7.13861 -0.71745,10.58236 0,5.52435 1.75775,9.47032 5.41673,11.8379 -2.00885,2.29583 -2.79804,4.77103 -2.79804,7.31797 0,2.61869 0.82506,5.34499 2.0806,8.10716 1.0403,2.29584 1.82949,4.37644 1.82949,6.31355 0,3.15677 -3.01328,6.77988 -6.49291,6.77988 z"
         id="path849"
         style="fill:#ffffff" />
    </g>
  </g>
</svg>
